# xmcd
#
# Track frame offsets:
# 150
# 17492
# 36655
# 54557
# 73100
# 93492
# 113887
# 133477
# 153922
# 174365
# 192612
# 211770
# 231207
# 251382
#
# Disc length: 3543 seconds
#
#
# Revision: 1
# Processed by: cddbd v1.5.2PL0 Copyright (c) Steve Scherf et al.
# Submitted via: FreeRIP 2.941 
#
DISCID=c70dd50e
DTITLE=Zezé di Camargo and Luciano - CD02 - Seleções do Reader´s Digest
DYEAR=2006
DGENRE=Country
TTITLE0=Coração está em pedaços
TTITLE1=Foi a primeira vez
TTITLE2=Pão de mel
TTITLE3=Faz mais uma vez comigo
TTITLE4=Dou a vida por um beijo
TTITLE5=Sem medo de ser feliz
TTITLE6=Desejo de mulher
TTITLE7=Preciso de um tempo
TTITLE8=Meu país
TTITLE9=Na hora H
TTITLE10=Nem mais um dúvida
TTITLE11=Saudade bandida
TTITLE12=Quem é ele?
TTITLE13=Mexe que mexe
EXTD=++++++++++++++++\nripado por:\nrsilvino@terra.com.br
EXTT0=
EXTT1=
EXTT2=
EXTT3=
EXTT4=
EXTT5=
EXTT6=
EXTT7=
EXTT8=
EXTT9=
EXTT10=
EXTT11=
EXTT12=
EXTT13=
PLAYORDER=
